<svg width="49" height="49" viewBox="0 0 49 49" fill="none" xmlns="http://www.w3.org/2000/svg">
<rect x="0.681641" y="0.323486" width="48" height="48" rx="24" fill="#F7F7F7"/>
<g clip-path="url(#clip0_8_442)">
<path d="M24.6816 23.3235C26.8908 23.3235 28.6816 21.5326 28.6816 19.3235C28.6816 17.1143 26.8908 15.3235 24.6816 15.3235C22.4725 15.3235 20.6816 17.1143 20.6816 19.3235C20.6816 21.5326 22.4725 23.3235 24.6816 23.3235Z" stroke="#939199" stroke-width="1.5" stroke-linecap="round" stroke-linejoin="round"/>
<path d="M18.6816 33.3235V31.3235C18.6816 30.2626 19.1031 29.2452 19.8532 28.4951C20.6034 27.7449 21.6208 27.3235 22.6816 27.3235H26.6816C27.7425 27.3235 28.7599 27.7449 29.5101 28.4951C30.2602 29.2452 30.6816 30.2626 30.6816 31.3235V33.3235" stroke="#939199" stroke-width="1.5" stroke-linecap="round" stroke-linejoin="round"/>
</g>
<defs>
<clipPath id="clip0_8_442">
<rect width="24" height="24" fill="white" transform="translate(12.6816 12.3235)"/>
</clipPath>
</defs>
</svg>
