<svg width="18" height="16" viewBox="0 0 18 16" fill="none"
    xmlns="http://www.w3.org/2000/svg">
    <path d="M17.0661 7.28095L17.5048 7.04104L17.0661 7.28095ZM17.0661 8.71918L17.5048 8.9591L17.0661 8.71918ZM0.933866 7.28082L1.37255 7.52073L0.933866 7.28082ZM0.933855 8.71905L0.495169 8.95896H0.495169L0.933855 8.71905ZM15.7657 4.75089C15.568 4.55811 15.2515 4.56211 15.0587 4.75982C14.8659 4.95754 14.8699 5.27409 15.0676 5.46687L15.7657 4.75089ZM6.83252 12.7279C6.56503 12.6594 6.29259 12.8206 6.224 13.0881C6.15542 13.3556 6.31666 13.628 6.58415 13.6966L6.83252 12.7279ZM11.387 2.81271L11.2576 3.29568L11.387 2.81271ZM4.48326 12.3165L4.23732 12.7518L4.77133 11.9078L4.48326 12.3165ZM1.37255 7.52073C2.84602 4.82647 5.70944 3 8.99997 3V2C5.33005 2 2.13732 4.03825 0.495184 7.04091L1.37255 7.52073ZM16.6275 8.47927C15.154 11.1735 12.2906 13 9.00003 13V14C12.67 14 15.8627 11.9618 17.5048 8.9591L16.6275 8.47927ZM16.6275 7.52085C16.7909 7.81963 16.7908 8.1805 16.6275 8.47927L17.5048 8.9591C17.8317 8.36134 17.8317 7.6388 17.5048 7.04104L16.6275 7.52085ZM0.495184 7.04091C0.168277 7.63866 0.168272 8.3612 0.495169 8.95896L1.37254 8.47915C1.20915 8.18037 1.20915 7.8195 1.37255 7.52073L0.495184 7.04091ZM15.0676 5.46687C15.6842 6.06811 16.2114 6.76006 16.6275 7.52085L17.5048 7.04104C17.0407 6.19227 16.4529 5.42089 15.7657 4.75089L15.0676 5.46687ZM9.00003 13C8.251 13 7.52483 12.9055 6.83252 12.7279L6.58415 13.6966C7.35694 13.8948 8.16654 14 9.00003 14V13ZM8.99997 3C9.78155 3 10.5383 3.10293 11.2576 3.29568L11.5164 2.32975C10.7134 2.11459 9.86971 2 8.99997 2V3ZM3.31307 10.8829C2.5312 10.206 1.87187 9.3922 1.37254 8.47915L0.495169 8.95896C1.05221 9.97755 1.7873 10.8847 2.65854 11.639L3.31307 10.8829ZM4.72919 11.8811C4.22351 11.5955 3.74928 11.2606 3.31307 10.8829L2.65854 11.639C3.14469 12.0598 3.67336 12.4332 4.23732 12.7518L4.72919 11.8811ZM2.69773 11.6696L4.19519 12.7252L4.77133 11.9078L3.27387 10.8523L2.69773 11.6696ZM11.2576 3.29568C11.9295 3.4757 12.5692 3.73421 13.1664 4.06083L13.6463 3.18347C12.9801 2.81916 12.2663 2.53067 11.5164 2.32975L11.2576 3.29568Z" fill="#1D1D1F"/>
    <path d="M15.8424 1.09229L2.09244 14.8423" stroke="#1D1D1F" stroke-linecap="round" stroke-linejoin="round"/>
    <path d="M6.25 8C6.25 6.48122 7.48122 5.25 9 5.25" stroke="#1D1D1F" stroke-linecap="round"/>
</svg>
