<svg width="15" height="15" viewBox="0 0 15 15" fill="none"
    xmlns="http://www.w3.org/2000/svg">
    <path d="M0.833328 10.9507C0.833328 10.5458 0.93652 10.1476 1.13316 9.79363L5.2571 2.37054C5.62266 1.71254 6.2587 1.24826 6.99681 1.10064V1.10064C7.32898 1.0342 7.67101 1.0342 8.00318 1.10064V1.10064C8.74129 1.24826 9.37733 1.71254 9.74289 2.37054L13.8668 9.79363C14.0635 10.1476 14.1667 10.5458 14.1667 10.9507V10.9507C14.1667 12.2666 13.0999 13.3333 11.7841 13.3333H3.21593C1.90005 13.3333 0.833328 12.2666 0.833328 10.9507V10.9507Z" stroke="#F2883D" stroke-width="1.5"/>
    <path d="M7.49995 4.99996L7.49995 7.66663" stroke="#F2883D" stroke-width="1.5" stroke-linecap="round" stroke-linejoin="round"/>
    <path d="M7.49995 9.66667L7.49995 10" stroke="#F2883D" stroke-width="1.5" stroke-linecap="round" stroke-linejoin="round"/>
</svg>
