<svg width="25" height="25" viewBox="0 0 25 25" fill="none" xmlns="http://www.w3.org/2000/svg">
<g clip-path="url(#clip0_8_425)">
<path d="M10.4517 5.32349C10.4517 4.79305 10.6624 4.28435 11.0374 3.90927C11.4125 3.5342 11.9212 3.32349 12.4517 3.32349C12.9821 3.32349 13.4908 3.5342 13.8659 3.90927C14.2409 4.28435 14.4517 4.79305 14.4517 5.32349C15.6001 5.86651 16.5791 6.71181 17.2837 7.76879C17.9884 8.82576 18.3921 10.0546 18.4517 11.3235V14.3235C18.5269 14.9452 18.7471 15.5405 19.0945 16.0616C19.4419 16.5827 19.9067 17.0149 20.4517 17.3235H4.45166C4.9966 17.0149 5.46147 16.5827 5.80885 16.0616C6.15623 15.5405 6.3764 14.9452 6.45166 14.3235V11.3235C6.51122 10.0546 6.91496 8.82576 7.61961 7.76879C8.32426 6.71181 9.30325 5.86651 10.4517 5.32349" stroke="#F3F5FF" stroke-width="1.5" stroke-linecap="round" stroke-linejoin="round"/>
<path d="M9.45166 17.3235V18.3235C9.45166 19.1191 9.76773 19.8822 10.3303 20.4448C10.8929 21.0074 11.656 21.3235 12.4517 21.3235C13.2473 21.3235 14.0104 21.0074 14.573 20.4448C15.1356 19.8822 15.4517 19.1191 15.4517 18.3235V17.3235" stroke="#F3F5FF" stroke-width="1.5" stroke-linecap="round" stroke-linejoin="round"/>
</g>
<defs>
<clipPath id="clip0_8_425">
<rect width="24" height="24" fill="white" transform="translate(0.45166 0.323486)"/>
</clipPath>
</defs>
</svg>
