<svg width="41" height="41" viewBox="0 0 41 41" fill="none" xmlns="http://www.w3.org/2000/svg">
<rect x="0.681641" y="0.0435791" width="40" height="40" rx="20" fill="#F7F7F7"/>
<g clip-path="url(#clip0_8_594)">
<path d="M19.0151 14.2102C19.0151 13.7682 19.1907 13.3443 19.5033 13.0317C19.8159 12.7192 20.2398 12.5436 20.6818 12.5436C21.1238 12.5436 21.5478 12.7192 21.8603 13.0317C22.1729 13.3443 22.3485 13.7682 22.3485 14.2102C23.3055 14.6628 24.1213 15.3672 24.7085 16.248C25.2957 17.1288 25.6322 18.1528 25.6818 19.2102V21.7102C25.7445 22.2283 25.928 22.7245 26.2175 23.1587C26.507 23.5929 26.8944 23.9531 27.3485 24.2102H14.0151C14.4693 23.9531 14.8566 23.5929 15.1461 23.1587C15.4356 22.7245 15.6191 22.2283 15.6818 21.7102V19.2102C15.7314 18.1528 16.0679 17.1288 16.6551 16.248C17.2423 15.3672 18.0581 14.6628 19.0151 14.2102" stroke="#1D1D1F" stroke-width="1.5" stroke-linecap="round" stroke-linejoin="round"/>
<path d="M18.1816 24.2102V25.0435C18.1816 25.7066 18.445 26.3425 18.9139 26.8113C19.3827 27.2801 20.0186 27.5435 20.6816 27.5435C21.3447 27.5435 21.9806 27.2801 22.4494 26.8113C22.9182 26.3425 23.1816 25.7066 23.1816 25.0435V24.2102" stroke="#1D1D1F" stroke-width="1.5" stroke-linecap="round" stroke-linejoin="round"/>
</g>
<defs>
<clipPath id="clip0_8_594">
<rect width="20" height="20" fill="white" transform="translate(10.6816 10.0436)"/>
</clipPath>
</defs>
</svg>
