<svg width="21" height="13" viewBox="0 0 21 13" fill="none" xmlns="http://www.w3.org/2000/svg">
<g clip-path="url(#clip0_8_461)">
<mask id="mask0_8_461" style="mask-type:luminance" maskUnits="userSpaceOnUse" x="0" y="0" width="21" height="13">
<path d="M20.6826 0.399658H0.682617V12.8925H20.6826V0.399658Z" fill="white"/>
</mask>
<g mask="url(#mask0_8_461)">
<path fill-rule="evenodd" clip-rule="evenodd" d="M20.6433 12.2451C20.6433 12.613 20.3429 12.9135 19.9751 12.9135H1.32745C0.959569 12.9135 0.65918 12.613 0.65918 12.2451V1.08886C0.65918 0.720904 0.959569 0.42041 1.32745 0.42041H19.9751C20.343 0.42041 20.6434 0.720904 20.6434 1.08886L20.6433 12.2451Z" fill="#14477C"/>
<path fill-rule="evenodd" clip-rule="evenodd" d="M13.0482 10.2511L13.2321 10.2475L13.4163 10.2362L13.5964 10.2098L13.7729 10.1797L13.9456 10.1384L14.1182 10.0935L14.2834 10.0333L14.4487 9.96965L14.6061 9.89802L14.7601 9.81928L14.9104 9.7328L15.0569 9.63911L15.1995 9.53779L15.3347 9.43257L15.4622 9.31997L15.5896 9.19957L15.7062 9.07567L15.819 8.94426L15.9278 8.80902L16.0291 8.67028L16.1192 8.52375L16.2095 8.37366L16.2844 8.21968L16.3596 8.05831L16.4234 7.89664L16.4798 7.72782L16.5286 7.55871L16.5697 7.38604L16.6 7.20564L16.6225 7.02931L16.6373 6.84512L16.641 6.6614L16.6373 6.47716L16.6225 6.29315L16.6 6.11665L16.5697 5.94042L16.5286 5.76743L16.4798 5.59865L16.4234 5.4295L16.3596 5.26814L16.2844 5.11031L16.2095 4.9564L16.1192 4.80624L16.0291 4.65978L15.9278 4.52094L15.819 4.38573L15.7062 4.25435L15.5896 4.13041L15.4622 4.01394L15.3347 3.9013L15.1995 3.79252L15.0569 3.69475L14.9104 3.6008L14.7601 3.5146L14.6061 3.43556L14.4487 3.36423L14.2834 3.3006L14.1182 3.24417L13.9456 3.19541L13.7729 3.1541L13.5964 3.12408L13.4163 3.1015L13.2321 3.08639L13.0482 3.08276L12.8643 3.08639L12.6842 3.1015L12.5039 3.12408L12.3276 3.1541L12.1547 3.19541L11.9821 3.24417L11.8167 3.3006L11.6553 3.36423L11.4976 3.43556L11.3437 3.5146L11.1936 3.6008L11.0471 3.69475L10.9083 3.79252L10.7729 3.9013L10.6416 4.01394L10.5179 4.13041L10.3976 4.25435L10.2888 4.38573L10.1798 4.52094L10.0822 4.65978L9.98838 4.80624L9.90219 4.9564L9.82317 5.11031L9.75188 5.26814L9.68798 5.4295L9.63182 5.59865L9.58311 5.76743L9.5415 5.94042L9.51176 6.11665L9.48913 6.29315L9.47405 6.47716L9.47021 6.6614L9.47405 6.84512L9.48913 7.02931L9.51176 7.20564L9.5415 7.38604L9.58311 7.55871L9.63182 7.72782L9.68798 7.89664L9.75188 8.05831L9.82317 8.21968L9.90219 8.37366L9.98838 8.52375L10.0822 8.67028L10.1798 8.80902L10.2888 8.94426L10.3976 9.07567L10.5179 9.19957L10.6416 9.31997L10.7729 9.43257L10.9083 9.53779L11.0471 9.63911L11.1936 9.7328L11.3437 9.81928L11.4976 9.89802L11.6553 9.96965L11.8167 10.0333L11.9821 10.0935L12.1547 10.1384L12.3276 10.1797L12.5039 10.2098L12.6842 10.2362L12.8643 10.2475L13.0482 10.2511Z" fill="#FBB230"/>
<path fill-rule="evenodd" clip-rule="evenodd" d="M8.25387 10.2511L8.43783 10.2475L8.61788 10.2362L8.79828 10.2098L8.9745 10.1797L9.1474 10.1384L9.32029 10.0935L9.48528 10.0333L9.64659 9.96965L9.80442 9.89802L9.95828 9.81928L10.1084 9.7328L10.2548 9.63911L10.3936 9.53779L10.5291 9.43257L10.6605 9.31997L10.7841 9.19957L10.9044 9.07567L11.0134 8.94426L11.1222 8.80902L11.2197 8.67028L11.3136 8.52375L11.3998 8.37366L11.4788 8.21968L11.5501 8.05831L11.614 7.89664L11.6701 7.72782L11.7191 7.55871L11.7605 7.38604L11.7903 7.20564L11.8128 7.02931L11.828 6.84512L11.8318 6.6614L11.828 6.47716L11.8128 6.29315L11.7903 6.11665L11.7605 5.94042L11.7191 5.76743L11.6701 5.59865L11.614 5.4295L11.5501 5.26814L11.4788 5.11031L11.3998 4.9564L11.3136 4.80624L11.2197 4.65978L11.1222 4.52094L11.0134 4.38573L10.9044 4.25435L10.7841 4.13041L10.6605 4.01394L10.5291 3.9013L10.3936 3.79252L10.2548 3.69475L10.1084 3.6008L9.95828 3.5146L9.80442 3.43556L9.64659 3.36423L9.48528 3.3006L9.32029 3.24417L9.1474 3.19541L8.9745 3.1541L8.79828 3.12408L8.61788 3.1015L8.43783 3.08639L8.25387 3.08276L8.06998 3.08639L7.88579 3.1015L7.70568 3.12408L7.52923 3.1541L7.35679 3.19541L7.1839 3.24417L7.01869 3.3006L6.85347 3.36423L6.69593 3.43556L6.54207 3.5146L6.39169 3.6008L6.24552 3.69475L6.10283 3.79252L5.96744 3.9013L5.83992 4.01394L5.71239 4.13041L5.59594 4.25435L5.48303 4.38573L5.37432 4.52094L5.27298 4.65978L5.18289 4.80624L5.09263 4.9564L5.01768 5.11031L4.94254 5.26814L4.87867 5.4295L4.82251 5.59865L4.77346 5.76743L4.73607 5.94042L4.70214 6.11665L4.67987 6.29315L4.66471 6.47716L4.66113 6.6614L4.66471 6.84512L4.67987 7.02931L4.70214 7.20564L4.73607 7.38604L4.77346 7.55871L4.82251 7.72782L4.87867 7.89664L4.94254 8.05831L5.01768 8.21968L5.09263 8.37366L5.18289 8.52375L5.27298 8.67028L5.37432 8.80902L5.48303 8.94426L5.59594 9.07567L5.71239 9.19957L5.83992 9.31997L5.96744 9.43257L6.10283 9.53779L6.24552 9.63911L6.39169 9.7328L6.54207 9.81928L6.69593 9.89802L6.85347 9.96965L7.01869 10.0333L7.1839 10.0935L7.35679 10.1384L7.52923 10.1797L7.70568 10.2098L7.88579 10.2362L8.06998 10.2475L8.25387 10.2511Z" fill="#EB2230"/>
<path fill-rule="evenodd" clip-rule="evenodd" d="M10.2324 4.45703H12.1361V4.26172H10.3976L10.2324 4.45703Z" fill="#FBB230"/>
<path fill-rule="evenodd" clip-rule="evenodd" d="M9.94775 4.88879H12.1367V4.69348H10.0604L9.94775 4.88879Z" fill="#FBB230"/>
<path fill-rule="evenodd" clip-rule="evenodd" d="M9.7334 5.32091H12.1363V5.12561H9.81982L9.7334 5.32091Z" fill="#FBB230"/>
<path fill-rule="evenodd" clip-rule="evenodd" d="M9.58691 5.75247H12.1363V5.56104H9.64691L9.58691 5.75247Z" fill="#FBB230"/>
<path fill-rule="evenodd" clip-rule="evenodd" d="M9.67256 7.84808H12.1431V7.65283H9.61279L9.67256 7.84808Z" fill="#FBB230"/>
<path fill-rule="evenodd" clip-rule="evenodd" d="M9.85321 8.27996H12.1434V8.08472H9.76318L9.85321 8.27996Z" fill="#FBB230"/>
<path fill-rule="evenodd" clip-rule="evenodd" d="M10.1122 8.71166H12.1433V8.51636H9.98828L10.1122 8.71166Z" fill="#FBB230"/>
<path fill-rule="evenodd" clip-rule="evenodd" d="M10.4656 9.14354H12.1437V8.94824H10.293L10.4656 9.14354Z" fill="#FBB230"/>
<path fill-rule="evenodd" clip-rule="evenodd" d="M9.50049 6.18453H12.136V5.99292H9.53797L9.50049 6.18453Z" fill="#FBB230"/>
<path fill-rule="evenodd" clip-rule="evenodd" d="M11.1069 7.41619H12.1132V7.22095H11.1446L11.1069 7.41619Z" fill="#FBB230"/>
<path fill-rule="evenodd" clip-rule="evenodd" d="M11.186 6.98412H12.1135V6.78882H11.2237L11.186 6.98412Z" fill="#FBB230"/>
<path fill-rule="evenodd" clip-rule="evenodd" d="M9.43311 6.78882H9.69586V6.98412H9.44835L9.43311 6.78882Z" fill="#FBB230"/>
<path fill-rule="evenodd" clip-rule="evenodd" d="M16.2962 8.68152C16.3901 8.68152 16.4653 8.76026 16.4653 8.85029C16.4653 8.94427 16.3901 9.0194 16.2962 9.0194C16.2023 9.0194 16.1274 8.94427 16.1274 8.85029C16.1274 8.76026 16.2023 8.68152 16.2962 8.68152ZM16.2962 8.71149C16.3752 8.71149 16.4388 8.77539 16.4388 8.85029C16.4388 8.92937 16.3753 8.99321 16.2962 8.99321C16.2213 8.99321 16.1571 8.92937 16.1571 8.85029C16.1571 8.77539 16.2213 8.71149 16.2962 8.71149Z" fill="#FBB230"/>
<path d="M16.2324 8.92547V8.78284H16.2924C16.3073 8.78284 16.3186 8.78284 16.3262 8.78668C16.3335 8.79029 16.3375 8.79413 16.3411 8.79774C16.3447 8.80542 16.3485 8.81287 16.3485 8.82031C16.3485 8.8316 16.3447 8.84284 16.3411 8.84673C16.3334 8.85418 16.3224 8.85802 16.3108 8.86158C16.3186 8.86547 16.3223 8.86931 16.3262 8.87287C16.3298 8.87671 16.3375 8.88415 16.3411 8.89544L16.3598 8.92547H16.3262L16.3034 8.8916C16.2994 8.88032 16.2922 8.87676 16.2885 8.87292C16.2885 8.86931 16.2846 8.86931 16.281 8.86547C16.2772 8.86547 16.2733 8.86547 16.2659 8.86547H16.262V8.92547H16.2324ZM16.2622 8.84284H16.2811C16.296 8.84284 16.3035 8.84284 16.3073 8.83928C16.3109 8.83928 16.3151 8.83928 16.3151 8.83539C16.3186 8.8316 16.3186 8.82799 16.3186 8.8241C16.3186 8.82026 16.3186 8.81665 16.3151 8.81287C16.3109 8.80891 16.3073 8.80891 16.3035 8.80536C16.3035 8.80536 16.296 8.80536 16.2847 8.80536H16.2622V8.84284H16.2622Z" fill="#FBB230"/>
<path fill-rule="evenodd" clip-rule="evenodd" d="M16.2581 7.26978C16.352 7.26978 16.4269 7.3449 16.4269 7.43889C16.4269 7.53276 16.352 7.60771 16.2581 7.60771C16.1643 7.60771 16.0894 7.53276 16.0894 7.43889C16.0894 7.3449 16.1643 7.26978 16.2581 7.26978ZM16.2581 7.29975C16.3371 7.29975 16.4008 7.36359 16.4008 7.43883C16.4008 7.51757 16.3372 7.58147 16.2581 7.58147C16.1792 7.58147 16.1155 7.51757 16.1155 7.43883C16.1155 7.36364 16.1791 7.29975 16.2581 7.29975Z" fill="white"/>
<path d="M16.1943 7.50999V7.37085H16.2544C16.2695 7.37085 16.2808 7.37085 16.2883 7.37469C16.292 7.37469 16.2992 7.3822 16.3031 7.38598C16.3069 7.39343 16.3105 7.40088 16.3105 7.40861C16.3105 7.4199 16.3069 7.4273 16.2992 7.43469C16.2957 7.4422 16.2844 7.44598 16.2731 7.44988C16.277 7.45343 16.2844 7.45733 16.2883 7.46116C16.292 7.46472 16.2957 7.47222 16.3031 7.48351L16.3221 7.50999H16.2882L16.2656 7.4799C16.2581 7.46861 16.2543 7.46116 16.2505 7.46116C16.2469 7.45733 16.2469 7.45343 16.2433 7.45343C16.2391 7.45343 16.2356 7.45343 16.2281 7.45343H16.2207V7.50993L16.1943 7.50999ZM16.2208 7.43119H16.2433C16.2582 7.43119 16.2656 7.43119 16.2695 7.42735C16.2731 7.42735 16.277 7.42346 16.277 7.42346C16.2808 7.4199 16.2808 7.41601 16.2808 7.41217C16.2808 7.40861 16.277 7.40088 16.277 7.40088C16.2731 7.39732 16.2695 7.39343 16.2657 7.39343C16.2619 7.39343 16.2544 7.39343 16.2433 7.39343H16.2208L16.2208 7.43119Z" fill="white"/>
<path fill-rule="evenodd" clip-rule="evenodd" d="M13.8447 7.53615L14.0887 6.25964H14.3927L14.4304 6.39099C14.4866 6.33454 14.5804 6.25964 14.7682 6.25964L14.6744 6.59758C14.5918 6.59758 14.464 6.58245 14.3591 6.83025C14.2803 7.0181 14.2426 7.32961 14.2013 7.53615H13.8447Z" fill="white"/>
<path fill-rule="evenodd" clip-rule="evenodd" d="M9.2414 5.94043H9.57899L9.50403 6.27832H9.69183L9.63544 6.54113H9.46661L9.37269 7.04812C9.354 7.14205 9.37269 7.23597 9.56048 7.19821L9.52306 7.47998C9.32036 7.63391 8.91458 7.52124 8.97842 7.14205L9.2414 5.94043Z" fill="white"/>
<path fill-rule="evenodd" clip-rule="evenodd" d="M10.7472 6.97294C10.7847 6.76641 10.8786 6.25964 10.2742 6.25964C9.71116 6.25964 9.63598 6.82285 9.63598 6.89775C9.61747 6.97294 9.61747 7.53615 10.218 7.53615C10.3681 7.53615 10.5784 7.51741 10.6723 7.47993L10.7285 7.21695C10.6723 7.23592 10.4807 7.25466 10.3306 7.25466C10.1993 7.25466 9.97408 7.25466 10.0115 6.97288L10.7472 6.97294Z" fill="white"/>
<path fill-rule="evenodd" clip-rule="evenodd" d="M6.65096 7.53612L6.95136 5.99658H6.36567L5.95262 6.93544L5.87747 5.99658H5.33314L5.03271 7.53612H5.37058L5.59607 6.42844L5.68995 7.53612H6.00908L6.49704 6.44718L6.29048 7.53612H6.65096Z" fill="white"/>
<path fill-rule="evenodd" clip-rule="evenodd" d="M7.04466 6.29705L6.98844 6.57882C7.08236 6.57882 7.30752 6.54111 7.42013 6.54111C7.53279 6.54111 7.68288 6.52243 7.62672 6.71023C7.53279 6.71023 6.9132 6.6163 6.81933 7.16077C6.76701 7.52123 7.19491 7.65269 7.45761 7.47997L7.49526 7.55493H7.81417L7.94575 6.86026C8.0846 6.23315 7.48024 6.22186 7.04466 6.29705Z" fill="white"/>
<path fill-rule="evenodd" clip-rule="evenodd" d="M12.6352 6.4098C12.5488 6.35713 12.4962 6.35713 12.3874 6.35713C12.2823 6.35713 12.0344 6.46235 12.0006 6.74384C11.948 7.0969 12.1771 7.25473 12.5111 7.14951L12.6014 7.44997C12.0308 7.7353 11.4861 7.29215 11.6665 6.6012C11.8127 6.07926 12.5037 5.76395 12.8492 6.19576L12.6352 6.4098Z" fill="white"/>
<path fill-rule="evenodd" clip-rule="evenodd" d="M15.6123 6.40991C14.6924 5.71887 14.3356 7.53633 15.049 7.53633C15.1616 7.53633 15.2745 7.48011 15.3494 7.4424L15.3868 7.53633H15.7624L16.0629 5.92163H15.7061L15.6123 6.40991Z" fill="white"/>
<path fill-rule="evenodd" clip-rule="evenodd" d="M12.9055 6.29705L12.8493 6.57882C12.9429 6.57882 13.1684 6.54111 13.2808 6.54111C13.3937 6.54111 13.525 6.52243 13.4875 6.71023C13.3937 6.71023 12.7742 6.6163 12.6805 7.16077C12.6425 7.42352 12.868 7.55493 13.0371 7.55493C13.2058 7.55493 13.2622 7.51745 13.3185 7.47997L13.3559 7.55493H13.6753L13.8066 6.86025C13.9494 6.23315 13.3447 6.22186 12.9055 6.29705Z" fill="white"/>
<path fill-rule="evenodd" clip-rule="evenodd" d="M10.0112 6.72896H10.443C10.4917 6.38718 10.0825 6.45486 10.0112 6.72896Z" fill="#EB2230"/>
<path fill-rule="evenodd" clip-rule="evenodd" d="M7.57104 6.97296C7.51459 6.97296 7.38324 6.93549 7.27035 7.01067C7.15803 7.08557 7.12032 7.21698 7.25184 7.25468C7.36422 7.2921 7.51459 7.21698 7.55201 7.10431L7.57104 6.97296Z" fill="#EB2230"/>
<path fill-rule="evenodd" clip-rule="evenodd" d="M15.4437 6.61636C15.3311 6.46599 15.0872 6.57894 15.012 6.86037C14.9558 7.04817 15.0684 7.17957 15.181 7.17957C15.4176 7.17963 15.5602 6.79292 15.4437 6.61636Z" fill="#FBB230"/>
<path fill-rule="evenodd" clip-rule="evenodd" d="M13.4506 6.97296C13.3945 6.97296 13.2631 6.93549 13.1502 7.01067C13.0379 7.08557 13.0002 7.21698 13.1318 7.25468C13.2441 7.2921 13.4133 7.21698 13.4319 7.10431L13.4506 6.97296Z" fill="#FBB230"/>
<path fill-rule="evenodd" clip-rule="evenodd" d="M10.7471 7.55488L10.7661 7.42348L10.9913 6.27832H11.2915L11.3289 6.40972C11.3854 6.35328 11.4793 6.27832 11.667 6.27832L11.5731 6.61626C11.5018 6.61626 11.3515 6.60113 11.2389 6.90159C11.175 7.07431 11.1375 7.36732 11.1037 7.55488H10.7471Z" fill="white"/>
<path fill-rule="evenodd" clip-rule="evenodd" d="M8.93003 6.5864H8.91484H8.9L8.88516 6.58256L8.87003 6.57895H8.8549L8.84 6.57506C8.77232 6.56766 8.7161 6.56377 8.64865 6.56766C8.47576 6.5825 8.40086 6.69127 8.54711 6.77391C8.66355 6.84165 8.75381 6.8303 8.83232 6.90554C9.00143 7.06314 8.91496 7.36738 8.72716 7.48365L8.69358 7.49878L8.6561 7.51391L8.61484 7.52491L8.57742 7.5362C8.39708 7.56623 8.15312 7.55878 7.97656 7.49878L8.02533 7.24703C8.16797 7.27706 8.40092 7.34096 8.50969 7.26606C8.63364 7.18342 8.52098 7.08566 8.43066 7.0444L8.38579 7.02944L8.34092 7.01076C7.98407 6.84904 8.06693 6.41723 8.40453 6.3272C8.53971 6.29718 8.6749 6.29718 8.81393 6.30846H8.84006C8.87398 6.31208 8.90401 6.31597 8.93398 6.32336H8.94888L8.96017 6.3272H8.97146L8.97885 6.33104H8.99014L8.93003 6.5864Z" fill="white"/>
</g>
</g>
<defs>
<clipPath id="clip0_8_461">
<rect width="20" height="12.4928" fill="white" transform="translate(0.681641 0.399658)"/>
</clipPath>
</defs>
</svg>
