<svg width="21" height="21" viewBox="0 0 21 21" fill="none" xmlns="http://www.w3.org/2000/svg">
<g clip-path="url(#clip0_8_499)">
<path d="M10.6821 20.1746C16.205 20.1746 20.6821 15.6974 20.6821 10.1746C20.6821 4.65171 16.205 0.174561 10.6821 0.174561C5.15928 0.174561 0.682129 4.65171 0.682129 10.1746C0.682129 15.6974 5.15928 20.1746 10.6821 20.1746Z" fill="#26A17B"/>
<path d="M16.1478 7.84081C15.6484 7.48644 15.114 7.10831 14.5915 6.73331C14.5796 6.72456 14.5684 6.71581 14.554 6.70706C14.4928 6.65678 14.4235 6.61726 14.349 6.59019L14.3428 6.58706C12.9447 6.24399 11.547 5.8994 10.1496 5.55331L6.40963 4.63019L6.3115 4.60394C6.199 4.57206 6.069 4.53644 5.93025 4.55394C5.89225 4.55976 5.85598 4.57384 5.824 4.59519L5.789 4.62456C5.74518 4.6695 5.71169 4.72346 5.69088 4.78269L5.68213 4.80644V4.94081L5.68838 4.96144C6.47588 7.20206 7.28463 9.47518 8.06463 11.6746C8.66525 13.3683 9.28963 15.1221 9.89838 16.8446C9.93588 16.9614 10.0428 17.0383 10.1759 17.0496H10.2046C10.2628 17.0511 10.3203 17.0369 10.3711 17.0085C10.4219 16.9801 10.4641 16.9386 10.4934 16.8883L12.7809 13.5052C13.3378 12.6821 13.8953 11.8564 14.4528 11.0333L15.1371 10.0196C15.5121 9.46331 15.8996 8.88894 16.284 8.32956L16.304 8.30081V8.26518C16.3128 8.16268 16.3153 7.95269 16.1478 7.84081ZM13.4678 9.07394C12.9303 9.35769 12.3821 9.65081 11.8303 9.94081L12.7953 8.89206C13.1965 8.45269 13.6153 7.99831 14.0253 7.55331L14.034 7.54456C14.0684 7.49768 14.1121 7.45393 14.1584 7.40706C14.1896 7.37519 14.2246 7.34269 14.2565 7.30456C14.4703 7.45456 14.6865 7.60644 14.8946 7.75581C15.0446 7.86394 15.1978 7.97268 15.354 8.08081C14.7231 8.40768 14.0943 8.73873 13.4678 9.07394ZM12.0878 8.93331C11.6746 9.38706 11.2471 9.85269 10.8228 10.3127C9.99914 9.29925 9.17309 8.28779 8.34463 7.27831L7.23275 5.92206L7.23025 5.91894C7.1465 5.82269 7.06525 5.71706 6.98463 5.61768C6.93275 5.55018 6.87775 5.48581 6.82275 5.41831C7.15775 5.50581 7.49588 5.58831 7.82775 5.66706C8.11963 5.73769 8.42275 5.81081 8.72025 5.88706L13.7484 7.12581C13.1909 7.72956 12.6303 8.34144 12.0878 8.93331ZM10.6346 14.6421C10.6665 14.3346 10.7015 14.0183 10.7303 13.7077C10.7565 13.4583 10.7821 13.2039 10.8084 12.9608C10.8484 12.5708 10.8921 12.1671 10.9271 11.7714L10.9353 11.7014C10.964 11.4489 10.9928 11.1889 11.0103 10.9277C11.0439 10.9087 11.0788 10.892 11.1146 10.8777C11.1578 10.8577 11.2009 10.8402 11.244 10.8139C11.9111 10.4584 12.5792 10.1049 13.2484 9.75331C13.9159 9.40206 14.6003 9.03831 15.279 8.67831C14.6631 9.58284 14.0498 10.4891 13.439 11.3971C12.9221 12.1608 12.3909 12.9489 11.8621 13.7252C11.6546 14.0358 11.4378 14.3521 11.2328 14.6564C11.0015 14.9964 10.7646 15.3446 10.534 15.6939C10.5628 15.3421 10.5971 14.9877 10.6346 14.6421ZM6.60963 6.10956C6.57213 6.00394 6.53088 5.89581 6.4965 5.79331C7.2765 6.74831 8.0615 7.70894 8.82713 8.64019C9.22275 9.12331 9.61838 9.60394 10.014 10.0902C10.0921 10.1808 10.1703 10.2777 10.2453 10.3714C10.3434 10.4914 10.4415 10.6177 10.5484 10.7377C10.5134 11.0389 10.4846 11.3439 10.4528 11.6364C10.4328 11.8414 10.4128 12.0471 10.3896 12.2552V12.2577C10.3809 12.3889 10.3634 12.5214 10.349 12.6502L10.2828 13.2333L10.2796 13.2533C10.2278 13.8452 10.164 14.4427 10.1034 15.0227C10.0778 15.2627 10.0546 15.5089 10.0284 15.7552C10.014 15.7114 9.99713 15.6671 9.98213 15.6258C9.9381 15.5064 9.8958 15.3864 9.85525 15.2658L9.54588 14.3958L6.609 6.10956" fill="white"/>
</g>
<defs>
<clipPath id="clip0_8_499">
<rect width="20" height="20" fill="white" transform="translate(0.681641 0.174561)"/>
</clipPath>
</defs>
</svg>
