<svg width="49" height="49" viewBox="0 0 49 49" fill="none" xmlns="http://www.w3.org/2000/svg">
<rect x="0.681641" y="0.323486" width="48" height="48" rx="24" fill="#F7F7F7"/>
<path fill-rule="evenodd" clip-rule="evenodd" d="M22.8612 20.6839C22.8612 19.9125 23.5163 19.6158 24.6013 19.6158C26.1572 19.6158 28.1226 20.0707 29.6785 20.8817V16.2334C27.9793 15.5806 26.3005 15.3235 24.6013 15.3235C20.4454 15.3235 17.6816 17.4202 17.6816 20.9213C17.6816 26.3806 25.4612 25.5103 25.4612 27.8641C25.4612 28.774 24.6423 29.0707 23.4958 29.0707C21.7966 29.0707 19.6265 28.3982 17.9068 27.4883V32.196C19.8108 32.9872 21.7352 33.3235 23.4958 33.3235C27.7541 33.3235 30.6816 31.2861 30.6816 27.7455C30.6612 21.851 22.8612 22.8993 22.8612 20.6839Z" fill="#635BFF"/>
</svg>
