<svg width="21" height="21" viewBox="0 0 21 21" fill="none" xmlns="http://www.w3.org/2000/svg">
<g clip-path="url(#clip0_8_506)">
<path d="M10.6816 20.1746C16.2045 20.1746 20.6816 15.6974 20.6816 10.1746C20.6816 4.65171 16.2045 0.174561 10.6816 0.174561C5.15879 0.174561 0.681641 4.65171 0.681641 10.1746C0.681641 15.6974 5.15879 20.1746 10.6816 20.1746Z" fill="#EB0029"/>
<path fill-rule="evenodd" clip-rule="evenodd" d="M6.16064 5.53245C6.25228 5.77601 10.1198 15.4779 10.129 15.487C10.1395 15.4976 15.6677 8.79178 15.6816 8.75164C15.6886 8.73156 13.7602 6.90162 13.7093 6.88006C13.688 6.871 11.9911 6.55601 9.93847 6.18009C7.88586 5.80417 6.19188 5.49323 6.17402 5.48914C6.14642 5.48279 6.14443 5.48931 6.16064 5.53245ZM10.3001 6.78071C11.7878 7.05353 13.0051 7.28257 13.0051 7.28971C13.0051 7.3029 10.9876 8.98203 10.9246 9.02129C10.8952 9.03964 10.6583 8.85076 9.24275 7.6806C7.36857 6.13128 7.55303 6.28582 7.5768 6.28517C7.58686 6.2849 8.81235 6.50789 10.3001 6.78071ZM8.9393 8.11075C10.1591 9.12082 10.6649 9.55071 10.66 9.57334C10.6562 9.59095 10.5352 10.5883 10.391 11.7896C10.2468 12.991 10.1245 13.9867 10.1193 14.0024C10.1141 14.018 9.45425 12.3856 8.65296 10.3747C7.85166 8.36392 7.19116 6.70667 7.18517 6.692C7.17921 6.67731 7.18271 6.66865 7.19299 6.67275C7.20327 6.67682 7.98911 7.32393 8.9393 8.11075ZM14.1879 8.0399C14.5029 8.33793 14.7573 8.58503 14.7533 8.58906C14.7406 8.60168 11.666 9.15403 11.6383 9.14864C11.6149 9.14406 13.5745 7.49807 13.6034 7.49807C13.6098 7.49807 13.8729 7.7419 14.1879 8.0399ZM14.642 9.1916C14.5519 9.32259 10.6609 14.0324 10.6572 14.0148C10.6548 14.0029 10.7679 13.0449 10.9085 11.8859L11.1643 9.77856L12.8706 9.46764C13.8091 9.2966 14.5975 9.15589 14.6227 9.1549C14.6645 9.15326 14.6661 9.15645 14.642 9.1916Z" fill="white"/>
</g>
<defs>
<clipPath id="clip0_8_506">
<rect width="20" height="20" fill="white" transform="translate(0.681641 0.174561)"/>
</clipPath>
</defs>
</svg>
