<svg width="21" height="21" viewBox="0 0 21 21" fill="none" xmlns="http://www.w3.org/2000/svg">
<g clip-path="url(#clip0_8_503)">
<path d="M10.6816 20.1746C16.2045 20.1746 20.6816 15.6974 20.6816 10.1746C20.6816 4.65173 16.2045 0.174561 10.6816 0.174561C5.15881 0.174561 0.681641 4.65173 0.681641 10.1746C0.681641 15.6974 5.15881 20.1746 10.6816 20.1746Z" fill="#8DC351"/>
<path d="M15.3651 8.48121C14.8918 8.24121 14.3218 8.19121 13.6618 8.33454C14.2318 7.59121 14.2518 6.77787 13.7218 5.90121C13.5318 5.58121 13.3018 5.33454 13.0285 5.16454C12.7551 4.99121 12.4551 4.89454 12.1185 4.87121C11.7851 4.84787 11.4418 4.87121 11.0985 4.93787C10.7518 5.00787 10.3718 5.11787 9.95513 5.27454L9.0418 3.36121L7.8718 3.91787L8.75846 5.77787C8.55513 5.87454 8.24846 6.02787 7.83846 6.23454L6.94513 4.35787L5.77513 4.91454L6.68846 6.82787C6.52513 6.91121 6.27846 7.03121 5.95513 7.18787L4.3418 7.94787L4.93513 9.19454L5.77846 8.79121C6.1618 8.60787 6.4718 8.67121 6.7018 8.98454L7.7418 11.1645C7.7918 11.1412 7.83513 11.1245 7.86846 11.1145L7.74846 11.1712L9.20513 14.2245C9.28846 14.5012 9.2018 14.7012 8.94846 14.8212L8.10513 15.2245L8.5318 16.7279L10.0518 16.0045C10.1485 15.9579 10.2885 15.8945 10.4718 15.8079C10.6551 15.7245 10.7918 15.6612 10.8851 15.6145L11.8085 17.5512L12.9785 16.9945L12.0651 15.0812C12.2818 14.9845 12.5918 14.8412 12.9951 14.6479L13.9051 16.5545L15.0751 15.9979L14.1518 14.0612C14.5585 13.8445 14.9085 13.6279 15.2018 13.4212C15.4951 13.2112 15.7618 12.9779 15.9985 12.7179C16.2351 12.4579 16.4085 12.1945 16.5218 11.9212C16.6351 11.6512 16.6918 11.3479 16.6885 11.0112C16.6885 10.6779 16.6185 10.3212 16.4818 9.94454C16.2118 9.20787 15.8418 8.71787 15.3651 8.48121ZM8.51846 7.58787C8.55513 7.57121 8.6518 7.52121 8.81513 7.44121C8.97846 7.36121 9.11513 7.29121 9.2218 7.23787C9.32846 7.18454 9.47846 7.12121 9.6718 7.04787C9.86513 6.97454 10.0285 6.92121 10.1685 6.88454C10.3085 6.84787 10.4651 6.82454 10.6451 6.81121C10.8251 6.79787 10.9785 6.81121 11.1118 6.85121C11.2418 6.89121 11.3718 6.96121 11.4951 7.06121C11.6185 7.16121 11.7218 7.29454 11.8018 7.46121C11.8685 7.60454 11.9085 7.74454 11.9185 7.88121C11.9285 8.01787 11.9051 8.14787 11.8518 8.27121C11.7985 8.39454 11.7385 8.50787 11.6685 8.61121C11.5985 8.71454 11.4985 8.82121 11.3685 8.92787C11.2351 9.03454 11.1185 9.12454 11.0185 9.19787C10.9151 9.27121 10.7851 9.35121 10.6218 9.43787C10.4585 9.52454 10.3351 9.59121 10.2485 9.63454C10.1651 9.67787 10.0451 9.73454 9.89513 9.80454C9.74513 9.87454 9.65513 9.91454 9.6318 9.92454L8.51846 7.58787ZM14.1785 11.2379C14.1851 11.3779 14.1718 11.5079 14.1385 11.6312C14.1018 11.7545 14.0385 11.8779 13.9485 12.0012C13.8551 12.1279 13.7618 12.2379 13.6651 12.3312C13.5685 12.4279 13.4451 12.5312 13.2951 12.6379C13.1451 12.7479 13.0118 12.8379 12.8918 12.9079C12.7751 12.9812 12.6318 13.0612 12.4618 13.1512C12.2918 13.2412 12.1618 13.3079 12.0651 13.3545C11.9685 13.4012 11.8451 13.4579 11.6985 13.5245C11.5518 13.5912 11.4551 13.6345 11.4151 13.6545L10.1918 11.0879C10.2318 11.0679 10.3518 11.0079 10.5485 10.9079C10.7451 10.8079 10.9085 10.7279 11.0351 10.6679C11.1618 10.6079 11.3385 10.5312 11.5685 10.4412C11.7985 10.3512 11.9951 10.2845 12.1618 10.2412C12.3285 10.1979 12.5151 10.1679 12.7251 10.1445C12.9351 10.1212 13.1185 10.1312 13.2718 10.1679C13.4251 10.2045 13.5751 10.2779 13.7185 10.3845C13.8618 10.4912 13.9785 10.6345 14.0651 10.8145C14.1351 10.9579 14.1718 11.0979 14.1785 11.2379Z" fill="white"/>
</g>
<defs>
<clipPath id="clip0_8_503">
<rect width="20" height="20" fill="white" transform="translate(0.681641 0.174561)"/>
</clipPath>
</defs>
</svg>
