<svg width="29" height="29" viewBox="0 0 29 29" fill="none" xmlns="http://www.w3.org/2000/svg">
<path d="M14.285 11.9902C16.5402 11.9902 18.3683 10.162 18.3683 7.90682C18.3683 5.65166 16.5402 3.82349 14.285 3.82349C12.0298 3.82349 10.2017 5.65166 10.2017 7.90682C10.2017 10.162 12.0298 11.9902 14.285 11.9902Z" stroke="white" stroke-width="2" stroke-linejoin="round"/>
<path d="M23.7852 17.8235V23.6568" stroke="white" stroke-width="1.5" stroke-linecap="round" stroke-linejoin="round"/>
<path d="M26.1183 20.1568L23.785 17.8235L21.4517 20.1568" stroke="white" stroke-width="1.5" stroke-linecap="round" stroke-linejoin="round"/>
<path d="M17.9517 16.6569H13.8683C13.7136 16.6569 13.6362 16.6569 13.5708 16.6579C9.25496 16.7286 5.77336 20.2102 5.70273 24.526C5.70166 24.5914 5.70166 24.6688 5.70166 24.8235V24.8235H17.9517" stroke="white" stroke-width="2" stroke-linecap="round" stroke-linejoin="round"/>
</svg>
