<svg width="41" height="41" viewBox="0 0 41 41" fill="none"
    xmlns="http://www.w3.org/2000/svg">
    <rect x="0.681641" y="0.0435791" width="40" height="40" rx="20" fill="#F7F7F7"/>
    <path d="M12.3481 24.982C12.3481 24.4759 12.4771 23.9781 12.7229 23.5356L17.8779 14.2567C18.3348 13.4343 19.1299 12.8539 20.0525 12.6694V12.6694C20.4677 12.5863 20.8953 12.5863 21.3105 12.6694V12.6694C22.2331 12.8539 23.0282 13.4343 23.4851 14.2568L28.64 23.5356C28.8858 23.9781 29.0148 24.4759 29.0148 24.982V24.982C29.0148 26.6268 27.6814 27.9602 26.0366 27.9602H15.3264C13.6816 27.9602 12.3481 26.6268 12.3481 24.982V24.982Z" stroke="#F23152" stroke-width="1.5"/>
    <path d="M20.6816 17.5436L20.6816 20.877" stroke="#F23152" stroke-width="1.5" stroke-linecap="round" stroke-linejoin="round"/>
    <path d="M20.6816 23.3769L20.6816 23.7936" stroke="#F23152" stroke-width="1.5" stroke-linecap="round" stroke-linejoin="round"/>
</svg>
